<svg xmlns="http://www.w3.org/2000/svg" version="1.1" xmlns:xlink="http://www.w3.org/1999/xlink" xmlns:svgjs="http://svgjs.dev/svgjs" width="100%" height="100%" viewBox="0 0 1000 600"><rect width="1000" height="600" x="0" y="0" fill="#191919"/><g><rect width="333.3333333333333" height="333.3333333333333" rx="13.333333333333334" ry="13.333333333333334" y="274.7236931822775" fill="#bb8888" transform="matrix(0.4950466922392551,0,0,0.49504669223925524,0,81.4911804495386)" x="252.50155639648438"/><path d="M400.96881768250023 516.3903555396078L413.5878649195015 516.3903555396078L364.74858068384344 366.3903600809139L353.379533408998 366.3903600809139L305.1652491544178 516.3903555396078L318.02239162230586 516.3903555396078L334.9569149191306 463.89035712906497L383.5878658277627 463.89035712906497L400.96881768250023 516.3903555396078ZM380.3735802107907 452.1046432001676L338.1712005361026 452.1046432001676L358.9450094309773 384.8129785707813L380.3735802107907 452.1046432001676ZM531.6830994393621 366.3903600809139L431.38548342829097 366.3903600809139L431.38548342829097 376.89631214379466L516.6830998934927 377.1046454708207L513.0223857186079 382.25345483874804L428.8259596962577 505.8844034767271L428.8259596962577 516.3903555396078L533.1711946324046 516.3903555396078L533.1711946324046 505.8844034767271L443.82595924212706 505.6760701497011L447.456911513151 500.7355941087997L531.6830994393621 376.89631214379466L531.6830994393621 366.3903600809139Z " fill="yello" transform="matrix(0.4950466922392551,0,0,0.49504669223925524,0,81.4911804495386)"/><path d="M763.3644750816227 513.8737717281226L775.7718097186705 513.8737717281226L727.7519131634924 366.3903600047234L716.5736069574727 366.3903600047234L669.1682246178088 513.8737717281226L681.8096599083858 513.8737717281226L698.4600688906505 462.2545776249329L746.2751273739907 462.2545776249329L763.3644750816227 513.8737717281226ZM743.1147685513464 450.6665952752372L701.6204277132948 450.6665952752372L722.045709733718 384.5038980715457L743.1147685513464 450.6665952752372ZM848.6941632930179 416.7512630951937L848.6941632930179 416.7512630951937L849.5135155803702 406.62640983005554Q849.5135155803702 406.62640983005554 846.6750451563285 406.2167336863794Q843.8365747322869 405.7777949610122 840.0324391124373 406.0118956145414L840.0324391124373 406.0118956145414Q828.6785574162709 406.62640983005554 820.3387216342929 409.17225443718564Q812.0281484340062 411.6888364626246 804.215039122469 415.258871428945L804.215039122469 415.258871428945L804.215039122469 408.32363956814226L792.2173806290972 408.32363956814226L792.2173806290972 513.8737717281226L804.215039122469 513.8737717281226L804.215039122469 427.695468647684Q807.1705598732751 425.7934008377592 811.3843716368009 423.803545282761Q815.5981834003265 421.8136897277627 820.4557719610575 420.2335103164406Q825.2840979400974 418.6533309051185 830.3465245726665 417.68766570931047Q835.4089512052356 416.7512630951937 839.8276010405992 416.5464250233556L839.8276010405992 416.5464250233556Q843.4268985886108 416.3123243698264 846.0605309408144 416.5464250233556Q848.6941632930179 416.7512630951937 848.6941632930179 416.7512630951937ZM877.7519069123305 414.2054184880636L877.7519069123305 414.2054184880636L877.7519069123305 366.3903600047234L865.7542484189587 366.3903600047234L865.7542484189587 513.8737717281226Q865.5494103471207 513.8737717281226 867.9489420457951 514.0786097999608Q870.3777363261605 514.2834478717987 874.3867100178481 514.6053362704014Q878.3956837095359 514.9272246690041 882.9313838716641 515.2491130676067Q887.4378214521014 515.5710014662093 891.7686835423916 515.7758395380474Q896.099545632682 515.9806776098854 899.025803801797 515.9806776098854L899.025803801797 515.9806776098854Q909.1506570669351 516.1855156817235 917.9001689925892 514.722386597166Q926.6496809182432 513.2299949309172 933.1752366353699 509.1332334941562Q939.7007923524964 505.0364720573951 943.2708273188168 497.428200817696Q946.8701248668283 489.84919215968796 946.8701248668283 478.2612098099923L946.8701248668283 478.2612098099923L946.8701248668283 438.22999805649823Q946.8701248668283 429.39269838577076 943.7975537892574 423.27681881232024Q940.7542452933778 417.1609392388698 935.6918186608087 413.4738539457848Q930.6293920282396 409.78676865269983 924.4257247097157 408.11880149630423Q918.2220573911918 406.4215717582175 911.9013397459032 406.4215717582175L911.9013397459032 406.4215717582175Q904.9368453034094 406.4215717582175 898.9380160567235 407.4750246990989Q892.9391868100377 408.52847763998034 887.759709850704 410.3134951231405Q882.6094954730615 412.0985126063007 877.7519069123305 414.2054184880636ZM877.7519069123305 504.3926952601898L877.7519069123305 504.3926952601898L877.7519069123305 424.73994789687777Q883.4581103421049 422.22336587143883 888.93021311835 420.321298061514Q894.4023158945952 418.4192302515892 900.196307069443 417.3657773107078Q905.9902982442909 416.3123243698264 912.7206920332555 416.3123243698264L912.7206920332555 416.3123243698264Q915.6762127840617 416.3123243698264 919.4803484039113 417.1609392388698Q923.2552214420698 418.0095541079132 926.9423067351547 420.321298061514Q930.6293920282396 422.63304201511494 932.9703985635317 427.1687421772433Q935.2821425171326 431.7044423393716 935.2821425171326 439.07861292554156L935.2821425171326 439.07861292554156L935.2821425171326 476.7980807254348Q935.2821425171326 484.37708938344275 933.7019631058105 489.96624248645253Q932.1217836944884 495.5553955894623 928.2298603295653 499.2424808825473Q924.3086743829512 502.92956617563226 917.4612302672219 504.5097455869544Q910.6137861514926 506.08992499827656 900.0792567426785 505.8558243447473L900.0792567426785 505.8558243447473Q895.0460926918006 505.6509862729093 890.8322809282748 505.44614820107125Q886.6184691647491 505.24131012923317 883.7507361590164 504.9194217306305Q880.9122657349748 504.59753333202787 879.3320863236527 504.5097455869544Q877.7519069123305 504.3926952601898 877.7519069123305 504.3926952601898ZM1032.1998130782235 440.13206586642303L1032.1998130782235 440.13206586642303Q1027.3422245174925 437.1765451156168 1021.3433952708067 434.6599630901779Q1015.3445660241207 432.1141184830478 1008.8190103069942 430.5339390717256Q1002.2641920081765 428.9537596604035 995.3289601473737 428.9537596604035L995.3289601473737 428.9537596604035Q989.0082425020852 428.9537596604035 983.2142513272374 430.6509893984902Q977.4202601523896 432.3482191365769 972.7675096634966 436.03530442966195Q968.1440217562948 439.7223897227469 965.5103894040913 445.8090067145062Q962.8767570518877 451.9248862879567 962.8767570518877 460.79144854037537L962.8767570518877 460.79144854037537L962.8767570518877 478.2612098099923Q962.8767570518877 489.84919215968796 966.5638423449727 497.428200817696Q970.2509276380576 505.0364720573951 976.6886956101107 509.1332334941562Q983.0972010004728 513.2299949309172 991.8467129261269 514.722386597166Q1000.5962248517808 516.1855156817235 1010.6918155352278 515.9806776098854L1010.6918155352278 515.9806776098854Q1013.8521743578722 515.9806776098854 1018.1830364481623 515.7758395380474Q1022.5138985384526 515.5710014662093 1027.0203361188899 515.2491130676067Q1031.5560362810184 514.9272246690041 1035.4479596459414 514.6053362704014Q1039.3691455925555 514.2834478717987 1041.7686772912298 514.0786097999608Q1044.1974715715953 513.8737717281226 1043.9926334997572 513.8737717281226L1043.9926334997572 513.8737717281226L1043.9926334997572 453.1831773006762Q1043.9926334997572 440.13206586642303 1041.8857276179942 431.17771586893093Q1039.7788217362315 422.22336587143883 1034.8334454304272 416.83905084026713Q1029.8880691246227 411.48399839078655 1021.4604455975713 409.055204110421Q1013.0328220705198 406.62640983005554 1000.1572861264135 406.62640983005554L1000.1572861264135 406.62640983005554L999.7476099827375 415.69781015431226Q1006.068327628026 415.69781015431226 1011.9793691296384 416.63421276842905Q1017.8611480495597 417.599877964237 1022.3968482116882 420.116459989676Q1026.9325483738164 422.63304201511494 1029.5661807260199 427.49063057584596Q1032.1998130782235 432.3482191365769 1032.1998130782235 440.13206586642303ZM1032.1998130782235 450.0228184780319L1032.1998130782235 450.0228184780319L1032.1998130782235 504.18785718835176Q1032.1998130782235 504.18785718835176 1031.2341478824155 504.2756449334252Q1030.2977452682987 504.3926952601898 1028.395677458374 504.5097455869544Q1026.4936096484491 504.59753333202787 1023.7721895511722 504.9194217306305Q1021.021506872204 505.24131012923317 1017.5392596509571 505.44614820107125Q1014.0862750114013 505.6509862729093 1009.8724632478757 505.8558243447473L1009.8724632478757 505.8558243447473Q999.3379338390614 506.2947630701146 992.3734393965675 504.7145836587925Q985.4089449540736 503.1344042474703 981.5170215891505 499.44731895438537Q977.6250982242276 495.76023366130033 976.0449188129055 490.054030231526Q974.4647394015833 484.37708938344275 974.4647394015833 476.7980807254348L974.4647394015833 476.7980807254348L974.4647394015833 461.2011246840515Q974.4647394015833 454.03179216971955 976.4545949565816 449.6131423343558Q978.473713093271 445.1944924989921 981.6340719159152 442.9705362904646Q984.7944307385595 440.77584266362834 988.1596276330417 439.92722779458495Q991.5248245275242 439.07861292554156 994.2755072064923 439.07861292554156L994.2755072064923 439.07861292554156Q1001.005900995457 439.07861292554156 1007.5314567125836 440.54174201009914Q1014.0862750114013 442.03413367634784 1020.4069926566898 444.55071570178677Q1026.7277103019783 447.0965603089169 1032.1998130782235 450.0228184780319ZM1073.6941539162751 414.2054184880636L1073.6941539162751 414.2054184880636L1073.6941539162751 366.3903600047234L1061.6964954229034 366.3903600047234L1061.6964954229034 513.8737717281226Q1061.4916573510654 513.8737717281226 1063.8911890497398 514.0786097999608Q1066.319983330105 514.2834478717987 1070.3289570217928 514.6053362704014Q1074.3379307134805 514.9272246690041 1078.8736308756088 515.2491130676067Q1083.380068456046 515.5710014662093 1087.7109305463364 515.7758395380474Q1092.0417926366267 515.9806776098854 1094.9680508057418 515.9806776098854L1094.9680508057418 515.9806776098854Q1105.0929040708797 516.1855156817235 1113.8424159965339 514.722386597166Q1122.5919279221878 513.2299949309172 1129.1174836393143 509.1332334941562Q1135.643039356441 505.0364720573951 1139.2130743227613 497.428200817696Q1142.812371870773 489.84919215968796 1142.812371870773 478.2612098099923L1142.812371870773 478.2612098099923L1142.812371870773 438.22999805649823Q1142.812371870773 429.39269838577076 1139.739800793202 423.27681881232024Q1136.6964922973225 417.1609392388698 1131.6340656647535 413.4738539457848Q1126.5716390321843 409.78676865269983 1120.3679717136604 408.11880149630423Q1114.1643043951365 406.4215717582175 1107.8435867498479 406.4215717582175L1107.8435867498479 406.4215717582175Q1100.879092307354 406.4215717582175 1094.8802630606683 407.4750246990989Q1088.8814338139823 408.52847763998034 1083.7019568546486 410.3134951231405Q1078.551742477006 412.0985126063007 1073.6941539162751 414.2054184880636ZM1073.6941539162751 504.3926952601898L1073.6941539162751 504.3926952601898L1073.6941539162751 424.73994789687777Q1079.4003573460495 422.22336587143883 1084.8724601222948 420.321298061514Q1090.3445628985398 418.4192302515892 1096.1385540733877 417.3657773107078Q1101.9325452482356 416.3123243698264 1108.6629390372 416.3123243698264L1108.6629390372 416.3123243698264Q1111.6184597880065 416.3123243698264 1115.4225954078559 417.1609392388698Q1119.1974684460145 418.0095541079132 1122.8845537390994 420.321298061514Q1126.5716390321843 422.63304201511494 1128.9126455674764 427.1687421772433Q1131.2243895210772 431.7044423393716 1131.2243895210772 439.07861292554156L1131.2243895210772 439.07861292554156L1131.2243895210772 476.7980807254348Q1131.2243895210772 484.37708938344275 1129.644210109755 489.96624248645253Q1128.064030698433 495.5553955894623 1124.17210733351 499.2424808825473Q1120.2509213868957 502.92956617563226 1113.4034772711666 504.5097455869544Q1106.5560331554373 506.08992499827656 1096.021503746623 505.8558243447473L1096.021503746623 505.8558243447473Q1090.9883396957453 505.6509862729093 1086.7745279322194 505.44614820107125Q1082.5607161686937 505.24131012923317 1079.6929831629611 504.9194217306305Q1076.8545127389195 504.59753333202787 1075.274333327597 504.5097455869544Q1073.6941539162751 504.3926952601898 1073.6941539162751 504.3926952601898ZM1315.3738161034883 366.3903600047234L1216.7589158043106 366.3903600047234L1216.7589158043106 376.7200513416996L1300.6254749311483 376.92488941353764L1297.0261773831369 381.98731604610674L1214.2423337788716 503.54408039114645L1214.2423337788716 513.8737717281226L1316.8369451880458 513.8737717281226L1316.8369451880458 503.54408039114645L1228.9906749512115 503.33924231930837L1232.5607099175318 498.48165375857735L1315.3738161034883 376.7200513416996L1315.3738161034883 366.3903600047234ZM1401.1131804585596 440.13206586642303L1401.1131804585596 440.13206586642303Q1396.2555918978285 437.1765451156168 1390.256762651143 434.6599630901779Q1384.257933404457 432.1141184830478 1377.7323776873302 430.5339390717256Q1371.2068219702035 428.9537596604035 1364.24232752771 428.9537596604035L1364.24232752771 428.9537596604035Q1357.921609882421 428.9537596604035 1352.1276187075734 430.6509893984902Q1346.3336275327256 432.3482191365769 1341.7101396255237 436.03530442966195Q1337.057389136631 439.7223897227469 1334.4237567844273 445.8090067145062Q1331.7901244322236 451.9248862879567 1331.7901244322236 460.79144854037537L1331.7901244322236 460.79144854037537L1331.7901244322236 478.2612098099923Q1331.7901244322236 489.84919215968796 1335.4772097253087 497.428200817696Q1339.1642950183937 505.0364720573951 1345.6020629904467 509.1332334941562Q1352.010568380809 513.2299949309172 1360.760080306463 514.722386597166Q1369.5095922321168 516.1855156817235 1379.634445497255 515.9806776098854L1379.634445497255 515.9806776098854Q1382.7948043198992 515.9806776098854 1387.0964038284983 515.7758395380474Q1391.4272659187889 515.5710014662093 1395.962966080917 515.2491130676067Q1400.4694036613544 514.9272246690041 1404.3905896079684 514.6053362704014Q1408.2825129728915 514.2834478717987 1410.711307253257 514.0786097999608Q1413.1108389519316 513.8737717281226 1412.9060008800932 513.8737717281226L1412.9060008800932 513.8737717281226L1412.9060008800932 453.1831773006762Q1412.9060008800932 440.13206586642303 1410.7990949983305 431.17771586893093Q1408.6921891165675 422.22336587143883 1403.7468128107632 416.83905084026713Q1398.8014365049587 411.48399839078655 1390.3738129779074 409.055204110421Q1381.9461894508559 406.62640983005554 1369.0999160884408 406.62640983005554L1369.0999160884408 406.62640983005554L1368.6609773630737 415.69781015431226Q1374.981695008362 415.69781015431226 1380.8927365099746 416.63421276842905Q1386.7745154298957 417.599877964237 1391.310215592024 420.116459989676Q1395.8459157541524 422.63304201511494 1398.479548106356 427.49063057584596Q1401.1131804585596 432.3482191365769 1401.1131804585596 440.13206586642303ZM1401.1131804585596 450.0228184780319L1401.1131804585596 450.0228184780319L1401.1131804585596 504.18785718835176Q1401.1131804585596 504.18785718835176 1400.1767778444425 504.2756449334252Q1399.211112648635 504.3926952601898 1397.30904483871 504.5097455869544Q1395.4362396104764 504.59753333202787 1392.6855569315082 504.9194217306305Q1389.93487425254 505.24131012923317 1386.4818896129843 505.44614820107125Q1382.9996423917373 505.6509862729093 1378.7858306282117 505.8558243447473L1378.7858306282117 505.8558243447473Q1368.2513012193974 506.2947630701146 1361.2868067769034 504.7145836587925Q1354.3515749161008 503.1344042474703 1350.4303889694868 499.44731895438537Q1346.5384656045637 495.76023366130033 1344.9582861932415 490.054030231526Q1343.3781067819193 484.37708938344275 1343.3781067819193 476.7980807254348L1343.3781067819193 476.7980807254348L1343.3781067819193 461.2011246840515Q1343.3781067819193 454.03179216971955 1345.3972249186088 449.6131423343558Q1347.3870804736068 445.1944924989921 1350.5474392962512 442.9705362904646Q1353.7077981188957 440.77584266362834 1357.072995013378 439.92722779458495Q1360.4381919078603 439.07861292554156 1363.1888745868284 439.07861292554156L1363.1888745868284 439.07861292554156Q1369.919268375793 439.07861292554156 1376.4740866746108 440.54174201009914Q1382.9996423917373 442.03413367634784 1389.320360037026 444.55071570178677Q1395.6410776823143 447.0965603089169 1401.1131804585596 450.0228184780319ZM1442.6075212966111 415.4929720824742L1442.6075212966111 415.4929720824742L1442.6075212966111 366.3903600047234L1430.6098628032394 366.3903600047234L1430.6098628032394 513.8737717281226L1442.6075212966111 513.8737717281226L1442.6075212966111 424.33027175320166Q1447.0554337136662 421.8136897277627 1451.3570332222653 420.2335103164406Q1455.6878953125556 418.6533309051185 1460.2235954746839 417.8047160360751Q1464.7300330551209 416.9561011670317 1469.5876216158522 416.9561011670317L1469.5876216158522 416.9561011670317Q1474.650048248421 416.9561011670317 1479.478374227461 418.12660443467774Q1484.3359627881919 419.2678451206326 1488.2278861531152 422.10631554467426Q1492.119809518038 424.97404855040696 1494.46081605333 429.71458678437335Q1496.772560006931 434.4551250183398 1496.772560006931 441.59519495098056L1496.772560006931 441.59519495098056L1496.772560006931 513.8737717281226L1508.5653804284648 513.8737717281226L1508.5653804284648 440.98068073546636Q1508.5653804284648 434.2210243648106 1506.9852010171426 428.74892158856545Q1505.4050216058204 423.27681881232024 1502.3617131099409 419.18005737555916Q1499.28914203237 415.0540333571069 1494.8704921970063 412.2155629330653Q1490.4518423616425 409.3770925090237 1484.6578511867947 407.88470084277503Q1478.8638600119468 406.4215717582175 1471.8993655694528 406.4215717582175L1471.8993655694528 406.4215717582175Q1466.6321008650457 406.4215717582175 1461.4818864874032 407.5920750258635Q1456.3024095280696 408.7333157118184 1451.47408354903 410.7524338485078Q1446.6164949882989 412.742289403506 1442.6075212966111 415.4929720824742ZM1536.803771760425 485.63538039616225L1536.803771760425 485.63538039616225L1536.803771760425 472.58426896190906L1601.064401154192 469.21907206742674L1601.064401154192 441.82929560450975Q1601.064401154192 430.0072126012849 1596.5287009920637 422.22336587143883Q1591.9930008299352 414.43951914159277 1583.6824276296481 410.43054544990514Q1575.3425918476705 406.4215717582175 1563.988710151504 406.4215717582175L1563.988710151504 406.4215717582175Q1552.8104039454845 406.4215717582175 1543.973104274757 410.43054544990514Q1535.1065420223383 414.43951914159277 1530.0441153897693 422.42820394327686Q1525.0109513388913 430.44615132665217 1525.0109513388913 442.4438098200239L1525.0109513388913 442.4438098200239L1525.0109513388913 485.63538039616225Q1525.0109513388913 494.5019426485809 1527.644583691095 500.38372156850215Q1530.2782160432982 506.2947630701146 1535.1065420223383 509.86479803643493Q1539.9641305830692 513.4640955844466 1546.694524372034 514.9272246690041Q1553.4541807426897 516.3903537535616 1561.442865544374 516.3903537535616L1561.442865544374 516.3903537535616Q1569.4608129277492 516.3903537535616 1578.7370513238438 513.7567214013579Q1587.9840271382475 511.12308904915443 1595.7971364497848 506.4996011419526L1595.7971364497848 506.4996011419526L1591.144385960892 497.428200817696Q1583.3605392310458 501.4371745093836 1575.7815305730376 503.8659687897491Q1568.2025219150298 506.2947630701146 1560.3894126034925 506.2947630701146L1560.3894126034925 506.2947630701146Q1555.3269859709233 506.2947630701146 1551.0253864623244 505.12425980246854Q1546.694524372034 503.98301911651373 1543.5341655493896 501.5542248361482Q1540.3738067267454 499.12543055578266 1538.5887892435853 495.23350719085965Q1536.803771760425 491.34158382593665 1536.803771760425 485.63538039616225ZM1589.271580732658 440.33690393826106L1589.271580732658 440.33690393826106L1589.271580732658 458.68454265861254L1536.803771760425 460.9962866122134L1536.803771760425 442.64864789186197Q1536.803771760425 434.2210243648106 1540.0519183281428 428.3392454448893Q1543.3293274775517 422.42820394327686 1549.4452070510022 419.38489544739724Q1555.5610866244526 416.3123243698264 1563.754609497975 416.3123243698264L1563.754609497975 416.3123243698264Q1571.1287800841449 416.3123243698264 1576.834983513919 419.2678451206326Q1582.5119243620022 422.22336587143883 1585.8771212564845 427.6076809026105Q1589.271580732658 432.9627333520911 1589.271580732658 440.33690393826106ZM1629.068691832623 485.63538039616225L1629.068691832623 485.63538039616225L1629.068691832623 472.58426896190906L1693.32932122639 469.21907206742674L1693.32932122639 441.82929560450975Q1693.32932122639 430.0072126012849 1688.8228836459525 422.22336587143883Q1684.2871834838243 414.43951914159277 1675.9473477018462 410.43054544990514Q1667.6367745015598 406.4215717582175 1656.253630223702 406.4215717582175L1656.253630223702 406.4215717582175Q1645.1045865993735 406.4215717582175 1636.238024346955 410.43054544990514Q1627.4007246762276 414.43951914159277 1622.3382980436584 422.42820394327686Q1617.2758714110894 430.44615132665217 1617.2758714110894 442.4438098200239L1617.2758714110894 442.4438098200239L1617.2758714110894 485.63538039616225Q1617.2758714110894 494.5019426485809 1619.909503763293 500.38372156850215Q1622.5431361154963 506.2947630701146 1627.4007246762276 509.86479803643493Q1632.2290506552674 513.4640955844466 1638.988707025923 514.9272246690041Q1645.7191008148877 516.3903537535616 1653.7370481982632 516.3903537535616L1653.7370481982632 516.3903537535616Q1661.7257329999472 516.3903537535616 1671.001971396042 513.7567214013579Q1680.2782097921367 511.12308904915443 1688.0620565219826 506.4996011419526L1688.0620565219826 506.4996011419526L1683.438568614781 497.428200817696Q1675.6547218849348 501.4371745093836 1668.0464506452356 503.8659687897491Q1660.4674419872276 506.2947630701146 1652.6835952573817 506.2947630701146L1652.6835952573817 506.2947630701146Q1647.6211686248125 506.2947630701146 1643.2903065345222 505.12425980246854Q1638.988707025923 503.98301911651373 1635.8283482032787 501.5542248361482Q1632.6679893806347 499.12543055578266 1630.8829718974746 495.23350719085965Q1629.068691832623 491.34158382593665 1629.068691832623 485.63538039616225ZM1681.5365008048564 440.33690393826106L1681.5365008048564 440.33690393826106L1681.5365008048564 458.68454265861254L1629.068691832623 460.9962866122134L1629.068691832623 442.64864789186197Q1629.068691832623 434.2210243648106 1632.3461009820319 428.3392454448893Q1635.6235101314408 422.42820394327686 1641.7101271232002 419.38489544739724Q1647.8260066966507 416.3123243698264 1656.0487921518638 416.3123243698264L1656.0487921518638 416.3123243698264Q1663.422962738034 416.3123243698264 1669.099903586117 419.2678451206326Q1674.8061070158917 422.22336587143883 1678.1713039103738 427.6076809026105Q1681.5365008048564 432.9627333520911 1681.5365008048564 440.33690393826106ZM1766.6613509444135 416.7512630951937L1766.6613509444135 416.7512630951937L1767.5099658134566 406.62640983005554Q1767.5099658134566 406.62640983005554 1764.671495389415 406.2167336863794Q1761.8037623836824 405.7777949610122 1758.0288893455238 406.0118956145414L1758.0288893455238 406.0118956145414Q1746.6457450676664 406.62640983005554 1738.3351718673796 409.17225443718564Q1729.9953360854017 411.6888364626246 1722.2114893555556 415.258871428945L1722.2114893555556 415.258871428945L1722.2114893555556 408.32363956814226L1710.1845682804926 408.32363956814226L1710.1845682804926 513.8737717281226L1722.2114893555556 513.8737717281226L1722.2114893555556 427.695468647684Q1725.1670101063617 425.7934008377592 1729.3808218698875 423.803545282761Q1733.594633633413 421.8136897277627 1738.422959612453 420.2335103164406Q1743.2805481731837 418.6533309051185 1748.342974805753 417.68766570931047Q1753.3761388566306 416.7512630951937 1757.8240512736859 416.5464250233556L1757.8240512736859 416.5464250233556Q1761.3940862400061 416.3123243698264 1764.0277185922098 416.5464250233556Q1766.6613509444135 416.7512630951937 1766.6613509444135 416.7512630951937Z " fill="#b88746" transform="matrix(0.4950466922392551,0,0,0.49504669223925524,0,81.4911804495386)"/></g></svg>